<?xml version="1.0" encoding="utf-8"?>
<!-- Generator: Adobe Illustrator 27.1.1, SVG Export Plug-In . SVG Version: 6.00 Build 0)  -->
<svg version="1.1" id="Layer_1" xmlns="http://www.w3.org/2000/svg" xmlns:xlink="http://www.w3.org/1999/xlink" x="0px" y="0px"
	 viewBox="0 0 2000 2000" style="enable-background:new 0 0 2000 2000;" xml:space="preserve">
<style type="text/css">
	.st0{fill:#00C7FC;}
	.st1{fill:#0071C5;}
	.st2{fill:#FFFFFF;}
	.st3{clip-path:url(#SVGID_00000074405238690659407330000015265522960235075505_);}
	.st4{fill:url(#);}
</style>
<g>
	<g>
		<g>
			<path d="M1055.04,714.06c0,0,159.43-24.26,320.02,129.4L1568,1000.58l-268.03,214.89c0,0-225.86,177.16-450.56-29.33
				c-40.85-37.54-69.45-87.09-78.8-141.78c-9.9-57.89-1.63-133.7,62.62-216.3L958,821.89c0,0-209.5,123.23-64.7,298.84
				c0,0,154.45,192.55,367.59,30.81l191.58-152.11c0,0-203.33-176.76-270.34-195.25C1182.13,804.17,1112.81,739.48,1055.04,714.06z"
				/>
			<path d="M945.75,1285.94c0,0-159.43,24.26-320.02-129.39L432.79,999.42l268.03-214.89c0,0,225.86-177.16,450.56,29.33
				c40.85,37.54,69.45,87.09,78.8,141.78c9.9,57.89,1.63,133.7-62.62,216.3l-124.77,6.16c0,0,209.5-123.23,64.7-298.84
				c0,0-154.45-192.55-367.59-30.81l-191.58,152.11c0,0,203.33,176.76,270.34,195.25C818.66,1195.83,887.98,1260.52,945.75,1285.94z
				"/>
		</g>
	</g>
</g>
</svg>
