<?xml version="1.0" encoding="utf-8"?>
<!-- Generator: Adobe Illustrator 27.1.1, SVG Export Plug-In . SVG Version: 6.00 Build 0)  -->
<svg version="1.1" id="Layer_1" xmlns="http://www.w3.org/2000/svg" xmlns:xlink="http://www.w3.org/1999/xlink" x="0px" y="0px"
	 viewBox="0 0 2000 2000" style="enable-background:new 0 0 2000 2000;" xml:space="preserve">
<style type="text/css">
	.st0{fill:#00C7FC;}
	.st1{fill:#0071C5;}
	.st2{fill:#FFFFFF;}
	.st3{clip-path:url(#SVGID_00000013163223085896665910000001543872050765579404_);}
	.st4{fill:url(#);}
</style>
<g>
	<g>
		<g>
			<path class="st0" d="M1054.65,714.06c0,0,159.43-24.26,320.02,129.4l192.94,157.12l-268.03,214.89
				c0,0-225.86,177.16-450.56-29.33c-40.85-37.54-69.45-87.09-78.8-141.78c-9.9-57.89-1.63-133.7,62.62-216.3l124.77-6.16
				c0,0-209.5,123.23-64.7,298.84c0,0,154.45,192.55,367.59,30.81l191.58-152.11c0,0-203.33-176.76-270.34-195.25
				C1181.73,804.17,1112.41,739.48,1054.65,714.06z"/>
			<path class="st1" d="M945.35,1285.94c0,0-159.43,24.26-320.02-129.39L432.39,999.42l268.03-214.89
				c0,0,225.86-177.16,450.56,29.33c40.85,37.54,69.45,87.09,78.8,141.78c9.9,57.89,1.63,133.7-62.62,216.3l-124.77,6.16
				c0,0,209.5-123.23,64.7-298.84c0,0-154.45-192.55-367.59-30.81l-191.58,152.11c0,0,203.33,176.76,270.34,195.25
				C818.27,1195.83,887.59,1260.52,945.35,1285.94z"/>
		</g>
	</g>
</g>
</svg>
