<?xml version="1.0" encoding="utf-8"?>
<!-- Generator: Adobe Illustrator 27.1.1, SVG Export Plug-In . SVG Version: 6.00 Build 0)  -->
<svg version="1.1" id="Layer_1" xmlns="http://www.w3.org/2000/svg" xmlns:xlink="http://www.w3.org/1999/xlink" x="0px" y="0px"
	 viewBox="260 800 1520 360" style="enable-background:new 0 0 2000 2000;" xml:space="preserve">
<style type="text/css">
	.st0{fill:#00C7FC;}
	.st1{fill:#0071C5;}
	.st2{fill:#FFFFFF;}
	.st3{clip-path:url(#SVGID_00000117657061895909243900000003831398931244875705_);}
	.st4{fill:url(#);}
</style>
<g>
	<g>
		<g>
			<path class="st1" d="M721.28,952.22h56.7c47.5,0,80.74,27.6,80.74,66.28c0,38.49-33.42,66.09-80.74,66.09h-56.7V952.22z
				 M823.98,1020.19v-3.57c0-25.54-18.78-41.87-47.31-41.87h-20.65v87.31h20.65C805.21,1062.06,823.98,1045.92,823.98,1020.19z"/>
			<path class="st1" d="M866.22,966.49c0-10.14,7.14-15.77,19.71-15.77c12.77,0,19.53,5.63,19.53,15.77
				c0,10.14-6.76,15.77-19.53,15.77C873.36,982.26,866.22,976.63,866.22,966.49z M868.66,987.52h34.55v97.07h-34.55V987.52z"/>
			<path class="st1" d="M935.13,1012.12h-22.16v-24.41c18.21,0,28.73-3.38,28.73-31.35v-3.94h34.55v3.94
				c0,16.71-12.58,26.66-24.79,31.35h50.32v24.41h-32.11v41.68c0,7.51,3.94,11.45,10.89,11.45h11.08v19.34h-11.45
				c-27.23,0-44.88-8.83-45.06-30.6V1012.12z"/>
			<path class="st1" d="M1064.3,1086.66c-37.74,0-64.03-21.22-64.03-50.32c0-29.1,26.47-50.32,64.21-50.32
				c37.93,0,64.03,21.03,64.03,50.32c0,1.5,0,3.19-0.19,4.69h-92.75c1.5,15.21,12.58,24.22,28.91,24.22
				c13.14,0,22.91-6.01,26.85-16.71h35.67C1120.63,1071.26,1096.41,1086.66,1064.3,1086.66z M1064.49,1007.43
				c-11.64,0-20.65,4.69-25.35,12.77h50.51C1084.77,1011.93,1075.94,1007.43,1064.49,1007.43z"/>
			<path class="st1" d="M1200.04,1086.47c-37.74,0-64.03-21.22-64.03-50.32c0-29.1,26.47-50.32,64.21-50.32
				c32.86,0,56.7,15.77,62.71,38.87h-35.49c-3.75-11.08-13.71-17.46-27.23-17.46c-17.65,0-29.1,10.51-29.1,27.6v2.44
				c0,17.27,11.45,27.79,29.1,27.79c13.33,0,23.47-6.38,27.23-17.46h35.3C1256.75,1070.7,1232.53,1086.47,1200.04,1086.47z"/>
			<path class="st1" d="M1270.44,952.22h34.55v66.65c1.69-14.27,16.15-33.05,37.74-33.05c27.04,0,44.69,17.84,44.69,41.87v56.89
				h-34.55v-52.01c0-16.15-6.57-24.41-15.77-24.41c-14.65,0-32.11,25.91-32.11,54.64v21.78h-34.55V952.22z"/>
			<path class="st1" d="M1414.83,1012.12h-22.16v-24.41c18.21,0,28.73-3.38,28.73-31.35v-3.94h34.55v3.94
				c0,16.71-12.58,26.66-24.79,31.35h50.32v24.41h-32.11v41.68c0,7.51,3.94,11.45,10.89,11.45h11.08v19.34h-11.45
				c-27.23,0-44.88-8.83-45.06-30.6V1012.12z"/>
			<path class="st1" d="M1544,1086.66c-37.74,0-64.03-21.22-64.03-50.32c0-29.1,26.47-50.32,64.21-50.32
				c37.93,0,64.03,21.03,64.03,50.32c0,1.5,0,3.19-0.19,4.69h-92.75c1.5,15.21,12.58,24.22,28.91,24.22
				c13.14,0,22.91-6.01,26.85-16.71h35.67C1600.33,1071.26,1576.11,1086.66,1544,1086.66z M1544.19,1007.43
				c-11.64,0-20.65,4.69-25.35,12.77h50.51C1564.47,1011.93,1555.64,1007.43,1544.19,1007.43z"/>
			<path class="st1" d="M1747.34,952.22v132.37h-34.74v-20.65c-7.32,12.2-24.22,22.34-42.06,22.34c-32.67,0-54.83-21.59-54.83-50.32
				c0-29.29,22.53-50.32,56.33-50.32c16.9,0,33.23,11.45,40.56,22.53v-55.95H1747.34z M1650.64,1034.84v2.44
				c0,16.15,11.64,27.6,25.91,27.6c15.02,0,30.23-12.77,30.23-28.92c0-15.96-15.21-28.91-30.23-28.91
				C1662.28,1007.05,1650.64,1018.5,1650.64,1034.84z"/>
		</g>
		<g>
			<path class="st0" d="M484.12,912.11c0,0,59.31-9.02,119.04,48.13l71.77,58.45l-99.7,79.93c0,0-84.02,65.9-167.6-10.91
				c-15.2-13.96-25.83-32.4-29.31-52.74c-3.68-21.53-0.61-49.73,23.29-80.46l46.41-2.29c0,0-77.93,45.84-24.07,111.16
				c0,0,57.45,71.62,136.74,11.46l71.26-56.58c0,0-75.64-65.75-100.56-72.63C531.4,945.63,505.61,921.57,484.12,912.11z"/>
			<path class="st1" d="M443.47,1124.84c0,0-59.31,9.02-119.04-48.13l-71.77-58.45l99.7-79.93c0,0,84.02-65.9,167.6,10.91
				c15.2,13.96,25.83,32.4,29.31,52.74c3.68,21.53,0.61,49.73-23.29,80.46l-46.41,2.29c0,0,77.93-45.84,24.07-111.16
				c0,0-57.45-71.62-136.74-11.46l-71.26,56.58c0,0,75.64,65.75,100.56,72.63C396.2,1091.32,421.98,1115.38,443.47,1124.84z"/>
		</g>
	</g>
</g>
</svg>
